# xmcd CD database file
# Copyright (C) 1993-1998 Ti Kan
#
# Track frame offsets:
#  150
#  20087
#  40492
#  59267
#  75850
#  97150
#  116082
#  138332
#  154775
#  175050
#  197052
#  211795
#
# Disc length: 3049 seconds
#
# Revision: 1
# Processed by: cddbd v1.4b41PL1 Copyright (c) Steve Scherf et al.
# Submitted via: CDWizzard Release:4.35
#
DISCID=9f0be70c
DTITLE=Margaret Becker - Steps Of Faith  1987-1991
DYEAR=1900
DGENRE=
TTITLE0=This Love
TTITLE1=All I Ever Wanted
TTITLE2=This Is My Passion
TTITLE3=Find Me
TTITLE4=Look Me In The Eye
TTITLE5=The Hunger Stays
TTITLE6=Never Be An Angel
TTITLE7=Streets Of Innocence
TTITLE8=Just Come In
TTITLE9=Who Am I
TTITLE10=Solomon's Shoes
TTITLE11=Never For Nothing
EXTD=
EXTT0=
EXTT1=
EXTT2=
EXTT3=
EXTT4=
EXTT5=
EXTT6=
EXTT7=
EXTT8=
EXTT9=
EXTT10=
EXTT11=
PLAYORDER=
